<?xml version="1.0" encoding="utf-8"?>
<svg viewBox="0 0 100 100" xmlns:xlink="http://www.w3.org/1999/xlink" xmlns="http://www.w3.org/2000/svg">
  <defs>
    <style type="text/css">@import url('https://fonts.googleapis.com/css?family=Inter')</style>
  </defs>
  <symbol id="psChevron" viewBox="0 0 100 100" xmlns="http://www.w3.org/2000/svg">
    <polygon points="40,20 45,20 60,50 35,80 32.5,80 55,50" />
  </symbol>
  <path fill="#4488ff" class="foreground-fill" d="M 0 5 L 90 5 L 92.5 7.5 L 92.5 82 L 90 82 L 90 7.5 L 0 7.5" />
  <path fill="#4488ff" class="foreground-fill" d="M 0 15 L 80 15 L 82.5 17.5 L 82.5 82 L 80 82 L 80 17.5 L 0 17.5" />
  <rect x="90%" width="2.5%" y="95.5%" height="110%" fill="#4488ff" class="foreground-fill" />
  <rect x="80%" width="2.5%" y="95.5%" height="110%" fill="#4488ff" class="foreground-fill" />
  <rect x="-190%" y="5%" height="2.5%" width="200%" fill="#4488ff" class="foreground-fill" />
  <rect x="-190%" y="15%" height="2.5%" width="200%" fill="#4488ff" class="foreground-fill" />
  <path fill="#4488ff" class="foreground-fill" d="M 100 85 L 22.5 85 L 20 82.5 L 20 18 L 22.5 18 L 22.5 82.5 L 100 82.5" />
  <path fill="#4488ff" class="foreground-fill" d="M 100 95 L 12.5 95 L 10 92.5 L 10 18 L 12.5 18 L 12.5 92.5 L 100 92.5" />
  <rect x="20%" width="2.5%" y="-195.5%" height="200%" fill="#4488ff" class="foreground-fill" />
  <rect x="10%" width="2.5%" y="-195.5%" height="200%" fill="#4488ff" class="foreground-fill" />
  <rect x="90%" y="82.5%" height="2.5%" width="200%" fill="#4488ff" class="foreground-fill" />
  <rect x="90%" y="92.5%" height="2.5%" width="200%" fill="#4488ff" class="foreground-fill" />
  <text x="48%" y="50%" text-anchor="middle" style="font-family:&quot;Inter&quot;, sans-serif" class="foreground-fill" fill="#4488ff" alignment-baseline="middle" font-size="9">Pipeworks</text>
  <use href="#psChevron" height="9%" y="45.5%" x="25%" opacity=".8" fill="#4488ff" class="foreground-fill" />
</svg>
